<svg xmlns="http://www.w3.org/2000/svg" fill="none" viewBox="0 0 24 24" id="Typesense-Icon--Streamline-Svg-Logos" height="24" width="24">
  <desc>
    Typesense Icon Streamline Icon: https://streamlinehq.com
  </desc>
  <path fill="#1035bc" d="M7.14435 7.694075c0.05055 0.252575 0.0758 0.496675 0.0758 0.7324 0 0.21885 -0.02525 0.45455 -0.0758 0.7071l-3.20725 -0.025225v8.485325c0 0.707125 0.3283 1.060675 0.9849 1.060675h1.9193c0.11785 0.286225 0.176775 0.57245 0.176775 0.858625 0 0.28625 -0.016825 0.463025 -0.0505 0.53035 -0.774425 0.101025 -1.57415 0.151525 -2.399125 0.151525 -1.6331 0 -2.4496475 -0.6987 -2.4496475 -2.096075V9.10835l-1.79304 0.025225C0.275255 8.881025 0.25 8.645325 0.25 8.426475c0 -0.235725 0.025255 -0.479825 0.0757625 -0.7324l1.79304 0.02525V5.067675c0 -0.454575 0.067345 -0.774475 0.2020325 -0.959675 0.13469 -0.202025 0.39564 -0.30305 0.782865 -0.30305h0.681875l0.151525 0.151525v3.78815l3.20725 -0.05055Zm0.961675 11.498c0.016425 -0.369025 0.117125 -0.771575 0.301675 -1.2077 0.2014 -0.452875 0.427875 -0.8051 0.679425 -1.05675 1.325125 0.721275 2.490775 1.08195 3.497375 1.08195 0.5532 0 0.99795 -0.10905 1.33335 -0.3271 0.352225 -0.218075 0.5286 -0.5116 0.5286 -0.88065 0 -0.58705 -0.452975 -1.056725 -1.358875 -1.408975l-1.408975 -0.528375c-2.11345 -0.771575 -3.1702 -2.004475 -3.1702 -3.6986 0 -0.60385 0.108925 -1.1406 0.327175 -1.610275 0.2347 -0.486425 0.553225 -0.897375 0.95605 -1.23285 0.419225 -0.35225 0.9141 -0.62065 1.4846 -0.80515 0.570075 -0.1845 1.207575 -0.276775 1.912075 -0.276775 0.318525 0 0.67075 0.0252 1.056725 0.0755 0.402375 0.0503 0.8052 0.125825 1.207575 0.226425 0.402825 0.0839 0.788325 0.184525 1.157425 0.30195 0.3691 0.117425 0.687625 0.2432 0.956025 0.3774 0 0.41935 -0.08385 0.85545 -0.251525 1.30835 -0.1677 0.4529 -0.394175 0.78835 -0.679425 1.006425 -1.32515 -0.5871 -2.473925 -0.8806 -3.4468 -0.8806 -0.4361 0 -0.78015 0.109 -1.031675 0.327075 -0.25155 0.201275 -0.3773 0.46965 -0.3773 0.805125 0 0.519975 0.419225 0.93095 1.258125 1.23285l1.53475 0.55355c1.106875 0.3858 1.928925 0.91415 2.465725 1.585125 0.5368 0.67095 0.8052 1.4509 0.8052 2.339925 0 1.19095 -0.44475 2.147 -1.3338 2.868275 -0.88905 0.704525 -2.1636 1.056775 -3.8241 1.056775 -1.62725 0 -3.1538 -0.410975 -4.5792 -1.2329Zm13.843675 4.409125V0.398585c0.2535 -0.0507175 0.541 -0.076075 0.862475 -0.076075 0.338025 0 0.650775 0.0253575 0.937825 0.076075V23.6012c-0.28705 0.0507 -0.5998 0.0761 -0.937825 0.0761 -0.321475 0 -0.608975 -0.0254 -0.862475 -0.0761Z" stroke-width="0.25"></path>
</svg>